<?xml version="1.0" encoding="iso-8859-1"?>
<!-- Uploaded to: SVG Repo, www.svgrepo.com, Generator: SVG Repo Mixer Tools -->
<svg height="800px" width="800px" version="1.1" id="Layer_1" xmlns="http://www.w3.org/2000/svg" xmlns:xlink="http://www.w3.org/1999/xlink" 
	 viewBox="0 0 512 512" xml:space="preserve">
<g>
	<path style="fill:#5B5D6E;" d="M282.483,203.034h-52.966V79.448c0-4.875,3.953-8.828,8.828-8.828h35.31
		c4.875,0,8.828,3.953,8.828,8.828V203.034z"/>
	<path style="fill:#5B5D6E;" d="M441.379,441.379H70.621C31.618,441.379,0,409.761,0,370.759V264.828
		c0-39.002,31.618-70.621,70.621-70.621h370.759c39.003,0,70.621,31.618,70.621,70.621v105.931
		C512,409.761,480.382,441.379,441.379,441.379z"/>
</g>
<g>
	<path style="fill:#464655;" d="M441.379,211.862c29.206,0,52.966,23.761,52.966,52.966v105.931
		c0,29.205-23.759,52.966-52.966,52.966H70.621c-29.206,0-52.966-23.761-52.966-52.966V264.828
		c0-29.205,23.759-52.966,52.966-52.966H441.379 M441.379,194.207H70.621C31.617,194.207,0,225.825,0,264.828v105.931
		c0,39.003,31.617,70.621,70.621,70.621h370.759c39.004,0,70.621-31.618,70.621-70.621V264.828
		C512,225.825,480.383,194.207,441.379,194.207L441.379,194.207z"/>
	<path style="fill:#464655;" d="M291.31,247.172H220.69c-4.875,0-8.828-3.953-8.828-8.828l0,0c0-4.875,3.953-8.828,8.828-8.828
		h70.621c4.875,0,8.828,3.953,8.828,8.828l0,0C300.138,243.22,296.185,247.172,291.31,247.172z"/>
	<path style="fill:#464655;" d="M282.483,97.103h-52.966V79.448c0-4.875,3.953-8.828,8.828-8.828h35.31
		c4.875,0,8.828,3.953,8.828,8.828V97.103z"/>
</g>
</svg>